<svg width="38" height="41" viewBox="0 0 38 41" fill="none" xmlns="http://www.w3.org/2000/svg">
<rect width="38" height="41" fill=""/>
<line x1="1.22962" y1="11.8294" x2="18.7296" y2="0.579411" stroke="black"/>
<line x1="1.5" y1="11" x2="1.5" y2="31" stroke="black"/>
<line x1="1.74807" y1="30.5659" x2="19.2481" y2="40.5659" stroke="black"/>
<line x1="18.7519" y1="40.5659" x2="36.2519" y2="30.5659" stroke="black"/>
<line x1="36.5" y1="31" x2="36.5" y2="11" stroke="black"/>
<line x1="18.0072" y1="0.571254" x2="36.7572" y2="11.8213" stroke="black"/>
<line x1="8.24803" y1="21.5659" x2="15.2484" y2="25.5653" stroke="black"/>
<line x1="22.5" y1="3" x2="22.5" y2="38" stroke="black"/>
<line x1="15.5" y1="3" x2="15.5" y2="31" stroke="black"/>
<line x1="29.5" y1="22" x2="29.5" y2="34" stroke="black"/>
<line x1="29.5" y1="13" x2="29.5" y2="18" stroke="black"/>
<line x1="8.5" y1="15" x2="8.5" y2="34" stroke="black"/>
<path d="M19 1L36.3205 11V31L19 41L1.67949 31V11L19 1Z" fill="white"/>
<line x1="1.22962" y1="11.8294" x2="18.7296" y2="0.579411" stroke="black"/>
<line x1="1.5" y1="11" x2="1.5" y2="31" stroke="black"/>
<line x1="1.74807" y1="30.5659" x2="19.2481" y2="40.5659" stroke="black"/>
<line x1="18.7519" y1="40.5659" x2="36.2519" y2="30.5659" stroke="black"/>
<line x1="36.5" y1="31" x2="36.5" y2="11" stroke="black"/>
<line x1="18.0072" y1="0.571254" x2="36.7572" y2="11.8213" stroke="black"/>
<line x1="8.24803" y1="21.5659" x2="15.2484" y2="25.5653" stroke="black"/>
<line x1="22.5" y1="3" x2="22.5" y2="38" stroke="black"/>
<line x1="15.5" y1="3" x2="15.5" y2="31" stroke="black"/>
<line x1="29.5" y1="22" x2="29.5" y2="34" stroke="black"/>
<line x1="29.5" y1="13" x2="29.5" y2="18" stroke="black"/>
<line x1="8.5" y1="15" x2="8.5" y2="34" stroke="black"/>
</svg>
